<?xml version="1.0" encoding="UTF-8" standalone="no"?>
<svg
   xmlns:dc="http://purl.org/dc/elements/1.1/"
   xmlns:cc="http://creativecommons.org/ns#"
   xmlns:rdf="http://www.w3.org/1999/02/22-rdf-syntax-ns#"
   xmlns:svg="http://www.w3.org/2000/svg"
   xmlns="http://www.w3.org/2000/svg"
   xmlns:sodipodi="http://sodipodi.sourceforge.net/DTD/sodipodi-0.dtd"
   xmlns:inkscape="http://www.inkscape.org/namespaces/inkscape"
   inkscape:version="1.0 (6e3e5246a0, 2020-05-07)"
   sodipodi:docname="calendario.svg"
   id="svg14"
   version="1.1"
   height="39"
   width="38"
   viewBox="0 0 38 39">
  <metadata
     id="metadata20">
    <rdf:RDF>
      <cc:Work
         rdf:about="">
        <dc:format>image/svg+xml</dc:format>
        <dc:type
           rdf:resource="http://purl.org/dc/dcmitype/StillImage" />
      </cc:Work>
    </rdf:RDF>
  </metadata>
  <defs
     id="defs18" />
  <sodipodi:namedview
     inkscape:current-layer="svg14"
     inkscape:window-maximized="1"
     inkscape:window-y="27"
     inkscape:window-x="66"
     inkscape:cy="21"
     inkscape:cx="19"
     inkscape:zoom="18.125"
     showgrid="false"
     id="namedview16"
     inkscape:window-height="1016"
     inkscape:window-width="1854"
     inkscape:pageshadow="2"
     inkscape:pageopacity="0"
     guidetolerance="10"
     gridtolerance="10"
     objecttolerance="10"
     borderopacity="1"
     bordercolor="#666666"
     pagecolor="#ffffff" />
  <path
     id="path2"
     d="M 0,35 V 11 h 38 v 24 c 0,2.2 -1.8,4 -4,4 H 4 C 1.8,39 0,37.2 0,35 Z"
     fill="#cfd8dc" />
  <path
     id="path4"
     d="m 38,7 v 6 H 0 V 7 C 0,4.8 1.8,3 4,3 h 30 c 2.2,0 4,1.8 4,4 z"
     fill="#f44336" />
  <path
     id="path6"
     d="m 28,4 a 3,3 0 1 0 0,6 3,3 0 1 0 0,-6 z M 10,4 a 3,3 0 1 0 0,6 3,3 0 1 0 0,-6 z"
     fill="#b71c1c" />
  <path
     id="path8"
     d="m 28,0 c -1.1,0 -2,0.9 -2,2 v 5 c 0,1.1 0.9,2 2,2 1.1,0 2,-0.9 2,-2 V 2 C 30,0.9 29.1,0 28,0 Z M 10,0 C 8.9,0 8,0.9 8,2 v 5 c 0,1.1 0.9,2 2,2 1.1,0 2,-0.9 2,-2 V 2 C 12,0.9 11.1,0 10,0 Z"
     fill="#b0bec5" />
  <g
     transform="translate(-5,-3)"
     id="g12">
    <path
       id="path10"
       d="m 13,20 h 4 v 4 h -4 z m 6,0 h 4 v 4 h -4 z m 6,0 h 4 v 4 h -4 z m 6,0 h 4 v 4 h -4 z m -18,6 h 4 v 4 h -4 z m 6,0 h 4 v 4 h -4 z m 6,0 h 4 v 4 h -4 z m 6,0 h 4 v 4 h -4 z m -18,6 h 4 v 4 h -4 z m 6,0 h 4 v 4 h -4 z m 6,0 h 4 v 4 h -4 z m 6,0 h 4 v 4 h -4 z"
       fill="#90a4ae" />
  </g>
</svg>
