<?xml version="1.0" encoding="UTF-8" standalone="no"?>
<svg
   xmlns:dc="http://purl.org/dc/elements/1.1/"
   xmlns:cc="http://creativecommons.org/ns#"
   xmlns:rdf="http://www.w3.org/1999/02/22-rdf-syntax-ns#"
   xmlns:svg="http://www.w3.org/2000/svg"
   xmlns="http://www.w3.org/2000/svg"
   xmlns:sodipodi="http://sodipodi.sourceforge.net/DTD/sodipodi-0.dtd"
   xmlns:inkscape="http://www.inkscape.org/namespaces/inkscape"
   sodipodi:docname="logo.svg"
   inkscape:version="1.0 (6e3e5246a0, 2020-05-07)"
   id="svg8"
   version="1.1"
   viewBox="0 0 210 297"
   height="297mm"
   width="210mm">
  <defs
     id="defs2">
    <rect
       id="rect1025"
       height="12.292998"
       width="13.600563"
       y="60.059882"
       x="81.924742" />
  </defs>
  <sodipodi:namedview
     inkscape:window-maximized="1"
     inkscape:window-y="27"
     inkscape:window-x="66"
     inkscape:window-height="704"
     inkscape:window-width="1300"
     showgrid="false"
     inkscape:document-rotation="0"
     inkscape:current-layer="layer1"
     inkscape:document-units="mm"
     inkscape:cy="500.67078"
     inkscape:cx="267.11706"
     inkscape:zoom="0.5"
     inkscape:pageshadow="2"
     inkscape:pageopacity="0.0"
     borderopacity="1.0"
     bordercolor="#666666"
     pagecolor="#ffffff"
     id="base" />
  <metadata
     id="metadata5">
    <rdf:RDF>
      <cc:Work
         rdf:about="">
        <dc:format>image/svg+xml</dc:format>
        <dc:type
           rdf:resource="http://purl.org/dc/dcmitype/StillImage" />
        <dc:title></dc:title>
      </cc:Work>
    </rdf:RDF>
  </metadata>
  <g
     id="layer1"
     inkscape:groupmode="layer"
     inkscape:label="Layer 1">
    <g
       transform="matrix(0.26458333,0,0,0.26458333,3.9426446,60.766829)"
       id="g1021">
      <g
         id="g940">
	<path
   style="fill:#8b00db;fill-opacity:1"
   d="m 368.31,352.271 c -18.711,0 -33.933,15.222 -33.933,33.933 0,18.711 15.222,33.933 33.933,33.933 16.778,0 30.742,-12.243 33.451,-28.261 1.504,3.948 2.334,8.226 2.334,12.697 0,19.731 -16.053,35.785 -35.785,35.785 -24.019,0 -49.631,-21.676 -82.055,-49.118 -40.012,-33.864 -89.808,-76.009 -162.038,-99.555 l -5.118,15.704 c 69.15,22.541 117.575,63.525 156.486,96.459 35.005,29.627 62.655,53.028 92.726,53.028 28.838,0 52.301,-23.463 52.301,-52.301 0,-28.84 -23.464,-52.304 -52.302,-52.304 z"
   id="path936" />

	<path
   style="fill:#8b00db;fill-opacity:1"
   d="M 83.976,276.375 V 379.16 c 0,13.243 -10.735,23.979 -23.979,23.979 l 22.266,60.852 c 21.757,0 39.394,-17.637 39.394,-39.394 l 0.001,-148.221 H 83.976 Z"
   id="path938" />

</g>
      <path
         style="fill:#ffffff"
         d="m 189.47,166.735 c -76.077,0 -143.315,27.896 -183.968,70.572 40.654,42.677 107.891,70.572 183.968,70.572 76.078,0 143.315,-27.896 183.968,-70.572 C 332.785,194.631 265.546,166.735 189.47,166.735 Z"
         id="path942" />
      <path
         style="fill:#8b0071;fill-opacity:1"
         d="m 503.742,181.293 v 16.505 c -29.729,0 -150.363,-48.392 -188.196,-63.224 -38.417,-15.063 -79.905,-22.693 -123.309,-22.693 -43.415,0 -84.904,7.63 -123.32,22.693 -18.707,7.333 -36.313,16.384 -52.4,26.877 L 5.505,131.832 C 21.9,121.482 51.167,107.597 70.017,100.528 108.643,86.06 150.241,79.046 193.635,79.707 c 43.393,0.65 84.75,8.908 122.924,24.543 5.351,2.092 24.202,10.108 33.429,13.697 51.002,20.767 153.754,63.346 153.754,63.346 z"
         id="path944" />
      <path
         style="fill:#8b00db;fill-opacity:1"
         d="m 503.742,148.294 v 32.999 C 480.333,180.941 400.99,149.725 349.988,128.959 340.761,125.369 321.911,117.354 316.559,115.262 278.385,99.627 237.028,91.369 193.635,90.719 150.242,90.058 108.643,97.072 70.017,111.54 51.167,118.609 32.911,127.682 16.516,138.032 L 5.505,131.833 16.516,91.203 C 33.55,81.139 53.061,72.011 72.22,65.482 c 39.055,-13.301 80.841,-19.06 124.212,-17.1 43.36,1.971 84.463,11.462 122.164,28.243 l 33.021,14.721 c 50.375,22.297 128.738,55.891 152.125,56.948 z"
         id="path946" />
      <path
         style="fill:#00e4c5"
         d="M 8.258,66.007 C 3.696,66.007 0,69.704 0,74.265 v 87.183 H 16.516 V 74.265 c 0,-4.561 -3.696,-8.258 -8.258,-8.258 z"
         id="path948" />
      <path
         style="fill:#8b0071;fill-opacity:1"
         d="m 192.23,166.735 v 141.146 c 38.981,0 70.572,-31.592 70.572,-70.572 0,-38.98 -31.592,-70.574 -70.572,-70.574 z"
         id="path950" />
      <path
         style="fill:#af138a;fill-opacity:1"
         d="m 192.229,166.735 c -38.981,0 -70.572,31.592 -70.572,70.572 0,38.98 31.591,70.572 70.572,70.572 25.324,0 45.854,-31.592 45.854,-70.572 0,-38.98 -20.529,-70.572 -45.854,-70.572 z"
         id="path952" />
      <circle
         style="fill-opacity:1;fill:#101113"
         cx="192.226"
         cy="237.30299"
         r="35.785"
         id="circle954" />
      <path
         style="fill:#8b00ff;fill-opacity:1"
         d="m 192.23,316.139 c -75.316,0 -146.325,-27.341 -189.949,-73.135 -3.038,-3.189 -3.038,-8.202 0,-11.392 43.624,-45.795 114.632,-73.135 189.949,-73.135 68.767,0 129.783,21.251 183.618,40 45.143,15.722 87.784,30.574 127.894,30.574 4.562,0 8.258,3.697 8.258,8.258 0,4.561 -3.696,8.258 -8.258,8.258 -42.906,0 -86.826,-15.297 -133.327,-31.492 -55.168,-19.214 -112.212,-39.08 -178.185,-39.08 -67.665,0 -131.369,23.167 -172.303,62.314 40.935,39.148 104.637,62.314 172.303,62.314 70.884,0 137.422,-25.424 177.988,-68.01 3.146,-3.302 8.373,-3.429 11.676,-0.284 3.302,3.146 3.429,8.373 0.284,11.676 -43.624,45.793 -114.633,73.134 -189.948,73.134 z"
         id="path956" />
      <g
         id="g958">
</g>
      <g
         id="g960">
</g>
      <g
         id="g962">
</g>
      <g
         id="g964">
</g>
      <g
         id="g966">
</g>
      <g
         id="g968">
</g>
      <g
         id="g970">
</g>
      <g
         id="g972">
</g>
      <g
         id="g974">
</g>
      <g
         id="g976">
</g>
      <g
         id="g978">
</g>
      <g
         id="g980">
</g>
      <g
         id="g982">
</g>
      <g
         id="g984">
</g>
      <g
         id="g986">
</g>
    </g>
    <text
       style="fill:black;fill-opacity:1;line-height:1.25;stroke:none;font-family:sans-serif;font-style:normal;font-weight:normal;font-size:10.58333333px;white-space:pre;shape-inside:url(#rect1025);"
       id="text1023"
       xml:space="preserve" />
  </g>
</svg>
