<?xml version="1.0" encoding="UTF-8" standalone="no"?>
<svg
   xmlns:dc="http://purl.org/dc/elements/1.1/"
   xmlns:cc="http://creativecommons.org/ns#"
   xmlns:rdf="http://www.w3.org/1999/02/22-rdf-syntax-ns#"
   xmlns:svg="http://www.w3.org/2000/svg"
   xmlns="http://www.w3.org/2000/svg"
   xmlns:sodipodi="http://sodipodi.sourceforge.net/DTD/sodipodi-0.dtd"
   xmlns:inkscape="http://www.inkscape.org/namespaces/inkscape"
   inkscape:version="1.0 (6e3e5246a0, 2020-05-07)"
   sodipodi:docname="pena-escrever.svg"
   id="svg1402"
   version="1.1"
   viewBox="0 0 69.33651 111.9351"
   height="111.9351mm"
   width="69.33651mm">
  <defs
     id="defs1396">
    <rect
       id="rect2192"
       height="11.915184"
       width="10.010682"
       y="32.868473"
       x="129.48576" />
  </defs>
  <sodipodi:namedview
     inkscape:window-maximized="1"
     inkscape:window-y="27"
     inkscape:window-x="66"
     inkscape:window-height="1016"
     inkscape:window-width="1854"
     showgrid="false"
     inkscape:document-rotation="0"
     inkscape:current-layer="layer1"
     inkscape:document-units="mm"
     inkscape:cy="216.66214"
     inkscape:cx="278.80704"
     inkscape:zoom="1.4"
     inkscape:pageshadow="2"
     inkscape:pageopacity="0.0"
     borderopacity="1.0"
     bordercolor="#666666"
     pagecolor="#ffffff"
     id="base" />
  <metadata
     id="metadata1399">
    <rdf:RDF>
      <cc:Work
         rdf:about="">
        <dc:format>image/svg+xml</dc:format>
        <dc:type
           rdf:resource="http://purl.org/dc/dcmitype/StillImage" />
        <dc:title></dc:title>
      </cc:Work>
    </rdf:RDF>
  </metadata>
  <g
     transform="translate(-28.075791,-14.336023)"
     id="layer1"
     inkscape:groupmode="layer"
     inkscape:label="Layer 1">
    <g
       inkscape:export-ydpi="25"
       inkscape:export-xdpi="25"
       inkscape:export-filename="/home/venezian/Desktop/pena.svg.png"
       id="g148"
       transform="matrix(0.36202252,0,0,-0.33126206,36.456159,125.50018)"
       style="stroke-width:1.0187">
      <path
         d="m 0,0 c 9.884,1.466 19.69,2.653 29.232,4.434 4.752,0.903 9.467,1.95 13.797,3.458 2.141,0.769 4.205,1.663 5.86,2.724 0.827,0.525 1.529,1.102 2.054,1.657 0.508,0.574 0.807,1.093 0.982,1.661 0.172,0.562 0.196,1.27 0.004,2.107 -0.065,0.222 -0.074,0.396 -0.175,0.668 l -0.274,0.784 c -0.17,0.528 -0.381,1.049 -0.603,1.571 -0.863,2.095 -2.008,4.154 -3.302,6.173 -2.587,4.062 -5.855,7.818 -8.879,11.935 -0.762,1.025 -1.446,2.14 -2.104,3.285 -0.609,1.186 -1.154,2.441 -1.432,3.839 -0.239,1.397 -0.206,2.897 0.224,4.29 0.473,1.352 1.148,2.631 2.022,3.668 3.498,4.194 7.994,6.798 12.396,9.327 4.427,2.444 9.075,4.717 13.965,6.352 4.869,1.693 9.93,2.783 15.003,3.556 10.163,1.536 20.407,1.68 30.381,1.067 9.988,-0.632 19.754,-1.761 29.483,-2.307 9.733,-0.554 19.433,-0.363 29.264,1.274 0.224,0.038 0.435,-0.113 0.473,-0.336 0.031,-0.186 -0.068,-0.363 -0.228,-0.44 -9.123,-4.345 -19.382,-6.193 -29.45,-6.905 -10.113,-0.724 -20.144,-0.293 -29.963,0.034 -4.912,0.194 -9.781,0.353 -14.62,0.447 C 89.272,64.391 84.462,64.266 79.693,63.854 70.161,62.94 60.824,61 51.692,57.547 l -1.698,-0.654 -1.66,-0.714 c -1.127,-0.453 -2.169,-1.021 -3.239,-1.565 -2.072,-1.145 -4.084,-2.446 -5.582,-4.11 -0.787,-0.811 -1.323,-1.744 -1.707,-2.708 -0.348,-0.976 -0.389,-2.011 -0.228,-3.054 0.4,-2.103 1.698,-4.136 3.208,-5.983 3.041,-3.737 6.875,-6.964 10.337,-10.771 1.742,-1.896 3.408,-3.946 4.855,-6.24 0.369,-0.567 0.721,-1.15 1.028,-1.769 l 0.482,-0.915 c 0.16,-0.29 0.318,-0.716 0.471,-1.074 0.57,-1.511 0.945,-3.34 0.652,-5.223 C 58.354,10.89 57.511,9.122 56.449,7.779 55.393,6.421 54.162,5.402 52.93,4.553 50.446,2.866 47.879,1.859 45.336,1.031 40.246,-0.591 35.165,-1.361 30.105,-1.843 25.045,-2.311 20.002,-2.419 14.979,-2.256 9.956,-2.064 4.954,-1.681 -0.017,-0.813 c -0.223,0.039 -0.373,0.251 -0.334,0.475 0.031,0.18 0.174,0.312 0.344,0.337 z"
         style="fill:#6d6e71;fill-opacity:1;fill-rule:nonzero;stroke:none;stroke-width:1.0187"
         id="path150" />
    </g>
    <g
       inkscape:export-ydpi="25"
       inkscape:export-xdpi="25"
       inkscape:export-filename="/home/venezian/Desktop/pena.svg.png"
       id="g192"
       transform="matrix(0.36202252,0,0,-0.33126206,88.303356,21.589375)"
       style="stroke-width:1.0187">
      <path
         d="m 0,0 c 8.648,-57.164 -19.733,-94.571 -42.5,-126.708 -9.107,-12.226 -17.787,-22.855 -25.454,-32.429 1.989,4.24 3.867,8.522 5.594,12.826 12.308,27.569 19.174,60.341 16.202,80.783 0.038,0.12 0.075,0.24 0.113,0.361 0.915,2.719 2.533,13.042 2.467,13.099 0.053,-0.044 0.087,-9.099 0.409,-9.117 2.864,-0.503 4.818,11.531 6.49,15.299 1.483,2.599 5.558,14.79 5.42,14.878 0.026,-0.011 2.02,-5.562 2.442,-5.097 2.104,2.041 2.616,11.007 3.324,14.745 1.591,6.363 3.951,19.311 4.771,25.53 0.914,4.486 1.71,14.351 3.295,16.6 2.208,2.868 10.154,-0.515 13.672,-1.631 1.626,-0.481 4.819,-1.142 6.733,-3.05 4.182,-4.043 12.056,-16.759 14.873,-23.312 2.677,-5.652 6.289,-17.713 6.794,-23.53 1.798,-12.202 -2.405,-33.324 -5.957,-42.518 -2.57,-9.278 -14.518,-33.049 -14.695,-32.774 -9.293,-4.704 -19.19,-9.422 -29.541,-14.213 9.248,3.577 18.077,7.041 26.408,10.424 0.026,-0.06 -6.296,-10.879 -8.605,-14.095 -0.602,-0.862 -1.416,-1.905 -2.317,-3.019 -12.885,-3.788 -34.884,-16.703 -52.333,-30.35 0.35,0.47 0.716,0.96 1.097,1.469 6.583,8.659 13.571,17.766 20.606,27.5 C -18.399,-95.8 9.458,-57.552 0,0"
         style="fill:#174082;fill-opacity:1;fill-rule:nonzero;stroke:none;stroke-width:1.0187"
         id="path194" />
    </g>
    <g
       inkscape:export-ydpi="25"
       inkscape:export-xdpi="25"
       inkscape:export-filename="/home/venezian/Desktop/pena.svg.png"
       id="g196"
       transform="matrix(0.36202252,0,0,-0.33126206,52.488218,91.035686)"
       style="fill:#cc78ff;fill-opacity:1;stroke-width:1.0187">
      <path
         d="m 0,0 c 0.707,1.191 1.433,2.397 2.173,3.608 0.337,0.552 0.68,1.109 1.025,1.665 0.42,0.677 0.846,1.361 1.277,2.044 0.696,1.106 1.408,2.221 2.132,3.343 0.351,0.545 0.705,1.086 1.062,1.634 0.497,0.761 1.001,1.527 1.511,2.296 0.341,0.514 0.687,1.033 1.033,1.551 0.798,1.191 1.612,2.391 2.44,3.601 0.455,0.664 0.912,1.327 1.376,1.997 0.472,0.683 0.951,1.372 1.434,2.062 0.549,0.785 1.105,1.574 1.667,2.367 0.386,0.545 0.771,1.086 1.162,1.634 0.951,1.333 1.918,2.677 2.902,4.032 0.278,0.383 0.559,0.771 0.841,1.156 0.895,1.228 1.803,2.465 2.723,3.712 0.196,0.266 0.39,0.527 0.587,0.794 1.116,1.507 2.249,3.028 3.399,4.564 0.258,0.344 0.521,0.696 0.781,1.042 0.784,1.044 1.575,2.095 2.374,3.153 1.48,1.961 2.983,3.939 4.51,5.949 C 53.792,65.735 71.696,73.577 84.501,77.196 82.184,74.375 79.292,71.085 77.888,68.883 76.138,66.135 73.99,59.896 72.17,57.452 70.189,54.766 64.935,51.953 63.119,49.244 61.736,47.181 61.009,42.113 59.738,40.114 57.579,36.735 51.646,32.807 49.282,30.031 44.62,24.697 38.041,12.825 34.761,7.914 32.575,4.887 26.237,-2.982 26.316,-2.95 17.353,-5.299 8.015,-8.036 -1.417,-11.287 c 8.172,1.541 16.104,2.638 23.632,3.369 -0.149,-0.054 -6.968,-10.133 -8.756,-13.232 -0.563,-0.9 -1.498,-2.38 -2.446,-3.935 C 0.784,-27.28 -12.572,-33.267 -20.556,-43.452 -16.074,-30.86 -9.682,-16.367 0,0"
         style="fill:#cc78ff;fill-opacity:1;fill-rule:nonzero;stroke:none;stroke-width:1.0187"
         id="path198" />
    </g>
    <g
       inkscape:export-ydpi="25"
       inkscape:export-xdpi="25"
       inkscape:export-filename="/home/venezian/Desktop/pena.svg.png"
       id="g200"
       transform="matrix(0.36202252,0,0,-0.33126206,50.87537,90.031865)"
       style="fill:#cc78ff;fill-opacity:1;stroke-width:1.0187">
      <path
         d="m 0,0 c -10.467,-16.3 -18.669,-31.714 -24.341,-45.951 -0.388,0.639 -0.801,1.232 -1.242,1.817 -3.855,6.187 -10.804,17.482 -11.728,20.92 1.368,-2.182 9.512,-13.824 11.686,-16.563 -2.895,4.242 -14.421,29.649 -15.34,41.297 -0.276,1.482 -0.628,4.559 -0.328,6.133 0.545,3.183 4.147,9.357 5.723,12.576 1.489,3.225 4.223,9.986 5.66,13.468 1.368,3.782 6.073,17.229 6.202,17.299 3.256,-7.328 6.577,-14.507 10.001,-21.557 -0.276,-0.166 2.51,20.034 5.789,27.38 0.785,1.938 2.956,5.832 4.367,7.672 2.552,3.362 9.077,9.425 12.343,12.498 2.687,2.535 9,6.846 11.159,9.877 1.355,1.898 2.956,6.517 4.149,8.572 2.109,3.587 6.998,9.972 9.786,13.355 1.65,1.975 5.368,5.572 6.831,7.728 1.777,2.515 5.63,11.091 5.603,11.13 0.39,-2.089 0.759,-4.163 1.102,-6.222 0.028,-0.037 4.505,9.139 5.696,12.664 C 55.578,114.548 52.039,86.666 41.026,60.301 39.298,55.996 37.421,51.714 35.432,47.475 19.644,27.946 8.232,12.817 0,0"
         style="fill:#cc78ff;fill-opacity:1;fill-rule:nonzero;stroke:none;stroke-width:1.0187"
         id="path202" />
    </g>
    <g
       inkscape:export-ydpi="25"
       inkscape:export-xdpi="25"
       inkscape:export-filename="/home/venezian/Desktop/pena.svg.png"
       id="g204"
       transform="matrix(0.36202252,0,0,-0.33126206,35.223581,103.875)"
       style="stroke-width:1.0187">
      <path
         d="m 0,0 c 2.093,-2 7.525,-5.07 9.66,-6.942 1.044,-0.936 3.439,-3.116 4.207,-3.806 -1.595,1.613 -10.26,11.732 -13.364,16.02 -3.941,4.839 -13.146,14.14 -15.599,20.26 -1.234,2.672 -2.207,11.998 -2.12,12.049 -0.053,-0.073 9.903,-11.664 13.229,-15.356 3.918,-4.697 14.521,-15.348 18.767,-20.911 1.059,-1.414 2.017,-2.528 2.872,-3.659 0.441,-0.585 0.854,-1.177 1.242,-1.817 -4.757,-11.807 -7.845,-22.763 -10.072,-32.335 -1.404,0.103 -7.638,3.642 -8.644,4.604 -3.345,3.028 -10.75,10.654 -12.359,15.777 -0.736,1.82 -2.728,11.018 -2.642,11.117 1.708,-1.411 3.424,-2.789 5.145,-4.132 -0.019,-0.04 -2.776,5.076 -3.38,6.975 -0.808,2.258 -1.391,7.119 -1.916,9.604 -0.892,3.097 -4.896,15.052 -4.767,15.173 -0.018,-0.041 8.606,-7.816 10.585,-10.007 C -6.539,9.481 -2.91,2.674 0,0"
         style="fill:#52ad4e;fill-opacity:1;fill-rule:nonzero;stroke:none;stroke-width:1.0187"
         id="path206" />
    </g>
    <g
       inkscape:export-ydpi="25"
       inkscape:export-xdpi="25"
       inkscape:export-filename="/home/venezian/Desktop/pena.svg.png"
       id="g208"
       transform="matrix(0.36202252,0,0,-0.33126206,56.184466,100.4802)"
       style="stroke-width:1.0187">
      <path
         d="m 0,0 c -1.792,-3.051 -3.555,-6.331 -3.551,-6.327 0.089,0.138 -13.497,-1.7 -17.641,-4.116 -1.698,-0.896 -6.704,-4.652 -6.681,-4.662 7.105,2.433 14.254,4.368 21.243,5.897 -0.132,-0.079 -4.353,-8.992 -5.832,-11.399 -1.086,-1.651 -3.954,-4.425 -5.015,-5.951 -0.986,-1.401 -3.832,-15.097 -5.412,-16.02 -2.866,-1.565 -15.502,-2.093 -18.379,-4.326 -0.234,-0.167 -0.481,-0.392 -0.731,-0.637 1.744,6.009 7.92,23.095 10.531,30.59 C -23.718,-5.091 -10.973,-2.34 0,0"
         style="fill:#52ad4e;fill-opacity:1;fill-rule:nonzero;stroke:none;stroke-width:1.0187"
         id="path210" />
    </g>
    <g
       inkscape:export-ydpi="25"
       inkscape:export-xdpi="25"
       inkscape:export-filename="/home/venezian/Desktop/pena.svg.png"
       id="g212"
       transform="matrix(0.36202252,0,0,-0.33126206,42.063452,105.25375)"
       style="stroke-width:1.0187">
      <path
         d="m 0,0 c 5.672,14.236 13.874,29.652 24.341,45.951 8.232,12.818 19.644,27.946 35.431,47.475 7.667,9.572 16.348,20.204 25.455,32.428 22.766,32.137 51.148,69.544 42.5,126.708 9.458,-57.55 -18.4,-95.799 -40.692,-128.329 C 80,114.499 73.011,105.393 66.428,96.733 66.02,96.196 65.611,95.658 65.205,95.125 63.678,93.115 62.175,91.137 60.695,89.176 59.897,88.119 59.104,87.065 58.321,86.022 58.061,85.676 57.798,85.326 57.54,84.98 56.39,83.445 55.256,81.924 54.141,80.417 53.945,80.15 53.75,79.888 53.554,79.623 52.634,78.375 51.726,77.14 50.831,75.911 50.55,75.525 50.268,75.139 49.99,74.755 49.006,73.399 48.04,72.056 47.088,70.723 46.697,70.175 46.312,69.635 45.926,69.089 45.364,68.296 44.809,67.507 44.259,66.722 43.776,66.032 43.298,65.344 42.825,64.66 42.36,63.99 41.904,63.328 41.449,62.663 40.621,61.453 39.808,60.252 39.009,59.062 38.663,58.543 38.317,58.024 37.976,57.511 37.466,56.742 36.962,55.976 36.465,55.215 36.107,54.667 35.755,54.126 35.403,53.581 34.678,52.46 33.967,51.344 33.271,50.238 32.84,49.555 32.414,48.871 31.994,48.194 31.649,47.638 31.307,47.082 30.969,46.529 30.229,45.319 29.503,44.111 28.796,42.921 19.114,26.554 12.722,12.061 8.24,-0.531 8,-1.202 7.767,-1.881 7.538,-2.541 4.927,-10.037 2.946,-16.811 1.203,-22.819 c -3.277,-11.367 -9.544,-32.834 -13.419,-38.516 -0.184,-0.059 -5.667,-4.666 -3.073,6.081 1.696,5.956 3.082,13.808 5.218,22.919 C -7.845,-22.763 -4.757,-11.806 0,0"
         style="fill:#231f20;fill-opacity:1;fill-rule:nonzero;stroke:none;stroke-width:1.0187"
         id="path214" />
    </g>
    <text
       style="font-style:normal;font-weight:normal;font-size:10.5833px;line-height:1.25;font-family:sans-serif;white-space:pre;shape-inside:url(#rect2192);fill:#000000;fill-opacity:1;stroke:none;"
       id="text2190"
       xml:space="preserve" />
  </g>
</svg>
